# This file uses centimeters as units for non-parametric coordinates.

mtllib TriangleBox.mtl
v -2.500000 -2.500000 2.500000
v 2.500000 -2.500000 2.500000
v -2.500000 2.499999 2.500000
v 2.500000 2.499999 2.500000
v -2.500000 2.499999 -2.500000
v -2.500000 -2.500000 -2.500000
vt 0.375000 0.000000
vt 0.625000 0.000000
vt 0.375000 0.250000
vt 0.625000 0.250000
vt 0.125000 0.000000
vt 0.125000 0.250000
vt 0.000000 0.000000
vt 1.000000 0.000000
vt 0.000000 1.000000
vt 0.000000 0.000000
vt 0.707107 0.000000
vt 0.707107 1.000000
vt 0.000000 1.000000
vt 0.000000 0.000000
vt 1.000000 0.000000
vt 0.000000 1.000000
vn 0.000000 0.000000 1.000000
vn 0.000000 0.000000 1.000000
vn 0.000000 0.000000 1.000000
vn 0.000000 0.000000 1.000000
vn -1.000000 0.000000 0.000000
vn -1.000000 0.000000 0.000000
vn -1.000000 0.000000 0.000000
vn -1.000000 0.000000 0.000000
vn 0.000000 -1.000000 0.000000
vn 0.000000 -1.000000 0.000000
vn 0.000000 -1.000000 0.000000
vn 0.707107 0.000000 -0.707107
vn 0.707107 0.000000 -0.707107
vn 0.707107 0.000000 -0.707107
vn 0.707107 0.000000 -0.707107
vn 0.000000 1.000000 0.000000
vn 0.000000 1.000000 0.000000
vn 0.000000 1.000000 0.000000
usemtl initialShadingGroup
f 1/1/1 2/2/2 3/3/3
f 3/3/3 2/2/2 4/4/4
f 6/5/5 1/1/6 5/6/7
f 5/6/7 1/1/6 3/3/8
f 1/7/9 6/8/10 2/9/11
f 4/10/12 2/11/13 5/13/14
f 5/13/14 2/11/13 6/12/15
f 3/14/16 4/15/17 5/16/18
