# This file uses centimeters as units for non-parametric coordinates.

mtllib TurnFloor_Up.mtl
v -2.500000 -2.500000 2.500000
v 2.500000 -2.500000 2.500000
v -2.500000 2.500000 2.500000
v 2.500000 2.500000 2.500000
v -2.500000 2.500000 -2.500000
v 2.500000 2.500000 -2.500000
v -2.500000 -2.500000 -2.500000
v 2.500000 -2.500000 -2.500000
vt 0.001891 0.001992
vt 0.331371 0.001992
vt 0.001891 0.331472
vt 0.331371 0.331472
vt 0.617659 0.664740
vt 0.617659 0.335260
vt 0.947139 0.664740
vt 0.947139 0.335260
vt 0.282357 0.335260
vt 0.611837 0.335260
vt 0.282357 0.664740
vt 0.611837 0.664740
vt 0.001890 0.998008
vt 0.001890 0.668528
vt 0.331371 0.998008
vt 0.331371 0.668528
vt 0.338705 0.668528
vt 0.668185 0.668528
vt 0.338705 0.998008
vt 0.668185 0.998008
vn 0.000000 0.000000 1.000000
vn 0.000000 0.000000 1.000000
vn 0.000000 0.000000 1.000000
vn 0.000000 0.000000 1.000000
vn 0.000000 0.000000 1.000000
vn 0.000000 0.000000 1.000000
vn 0.000000 0.000000 -1.000000
vn 0.000000 0.000000 -1.000000
vn 0.000000 0.000000 -1.000000
vn 0.000000 0.000000 -1.000000
vn 0.000000 0.000000 -1.000000
vn 0.000000 0.000000 -1.000000
vn 0.000000 -1.000000 0.000000
vn 0.000000 -1.000000 0.000000
vn 0.000000 -1.000000 0.000000
vn 0.000000 -1.000000 0.000000
vn 0.000000 -1.000000 0.000000
vn 0.000000 -1.000000 0.000000
vn 1.000000 0.000000 0.000000
vn 1.000000 0.000000 0.000000
vn 1.000000 0.000000 0.000000
vn 1.000000 0.000000 0.000000
vn 1.000000 0.000000 0.000000
vn 1.000000 0.000000 0.000000
vn -1.000000 0.000000 0.000000
vn -1.000000 0.000000 0.000000
vn -1.000000 0.000000 0.000000
vn -1.000000 0.000000 0.000000
vn -1.000000 0.000000 0.000000
vn -1.000000 0.000000 0.000000
usemtl TurnFloor_Up:lambert2SG
f 1/1/1 2/2/2 3/3/3
f 3/3/4 2/2/5 4/4/6
f 5/5/7 6/6/8 7/7/9
f 7/7/10 6/6/11 8/8/12
f 7/9/13 8/10/14 1/11/15
f 1/11/16 8/10/17 2/12/18
f 2/13/19 8/14/20 4/15/21
f 4/15/22 8/14/23 6/16/24
f 7/17/25 1/18/26 5/19/27
f 5/19/28 1/18/29 3/20/30
