# This file uses centimeters as units for non-parametric coordinates.

mtllib NeedleBlock.mtl
v -0.500000 -0.750000 0.500000
v 0.500000 -0.750000 0.500000
v -0.500000 -0.250000 0.500000
v 0.500000 -0.250000 0.500000
v -0.500000 -0.250000 -0.500000
v 0.500000 -0.250000 -0.500000
v -0.500000 -0.750000 -0.500000
v 0.500000 -0.750000 -0.500000
v -0.148873 -0.500000 0.176527
v -0.211373 -0.500000 0.131118
v -0.288627 -0.500000 0.131118
v -0.351127 -0.500000 0.176527
v -0.375000 -0.500000 0.250000
v -0.351127 -0.500000 0.323473
v -0.288627 -0.500000 0.368882
v -0.211373 -0.500000 0.368882
v -0.148873 -0.500000 0.323473
v -0.125000 -0.500000 0.250000
v -0.250000 0.500000 0.250000
v -0.153873 -0.500000 -0.323473
v -0.216373 -0.500000 -0.368882
v -0.293627 -0.500000 -0.368882
v -0.356127 -0.500000 -0.323473
v -0.380000 -0.500000 -0.250000
v -0.356127 -0.500000 -0.176527
v -0.293627 -0.500000 -0.131118
v -0.216373 -0.500000 -0.131118
v -0.153873 -0.500000 -0.176527
v -0.130000 -0.500000 -0.250000
v -0.255000 0.500000 -0.250000
v 0.351127 -0.500000 -0.323473
v 0.288627 -0.500000 -0.368882
v 0.211373 -0.500000 -0.368882
v 0.148873 -0.500000 -0.323473
v 0.125000 -0.500000 -0.250000
v 0.148873 -0.500000 -0.176527
v 0.211373 -0.500000 -0.131118
v 0.288627 -0.500000 -0.131118
v 0.351127 -0.500000 -0.176527
v 0.375000 -0.500000 -0.250000
v 0.250000 0.500000 -0.250000
v 0.351127 -0.500000 0.176527
v 0.288627 -0.500000 0.131118
v 0.211373 -0.500000 0.131118
v 0.148873 -0.500000 0.176527
v 0.125000 -0.500000 0.250000
v 0.148873 -0.500000 0.323473
v 0.211373 -0.500000 0.368882
v 0.288627 -0.500000 0.368882
v 0.351127 -0.500000 0.323473
v 0.375000 -0.500000 0.250000
v 0.250000 0.500000 0.250000
vt 0.463727 0.664718
vt 0.463727 0.335282
vt 0.628445 0.664718
vt 0.628445 0.335282
vt 0.293085 0.664718
vt 0.293085 0.335282
vt 0.457802 0.664718
vt 0.457802 0.335282
vt 0.108163 0.335282
vt 0.132367 0.335282
vt 0.132367 0.664718
vt 0.156572 0.335282
vt 0.093203 0.335282
vt 0.171531 0.335282
vt 0.223791 0.335282
vt 0.247996 0.335282
vt 0.247996 0.664718
vt 0.272200 0.335282
vt 0.208832 0.335282
vt 0.287160 0.335282
vt 0.133765 0.668572
vt 0.157970 0.668572
vt 0.157970 0.998008
vt 0.182175 0.668572
vt 0.118806 0.668572
vt 0.197134 0.668572
vt 0.016883 0.668572
vt 0.041088 0.668572
vt 0.041088 0.998008
vt 0.065292 0.668572
vt 0.001924 0.668572
vt 0.080252 0.668572
vt 0.367153 0.668572
vt 0.391358 0.668572
vt 0.391358 0.998008
vt 0.415562 0.668572
vt 0.352194 0.668572
vt 0.430522 0.668572
vt 0.250459 0.668572
vt 0.274664 0.668572
vt 0.274664 0.998008
vt 0.298868 0.668572
vt 0.235500 0.668572
vt 0.313828 0.668572
vt 0.600541 0.668572
vt 0.624746 0.668572
vt 0.624746 0.998008
vt 0.648950 0.668572
vt 0.585582 0.668572
vt 0.663910 0.668572
vt 0.483847 0.668572
vt 0.508052 0.668572
vt 0.508052 0.998008
vt 0.532256 0.668572
vt 0.468888 0.668572
vt 0.547216 0.668572
vt 0.173389 0.001992
vt 0.502824 0.001992
vt 0.173389 0.331427
vt 0.502824 0.331427
vt 0.634370 0.335282
vt 0.963805 0.335282
vt 0.634370 0.664718
vt 0.963805 0.664718
vt 0.717235 0.676437
vt 0.741440 0.668572
vt 0.702276 0.697027
vt 0.765644 0.676437
vt 0.780604 0.697027
vt 0.780604 0.722477
vt 0.765644 0.743067
vt 0.741440 0.750931
vt 0.717235 0.743067
vt 0.702276 0.722477
vt 0.801932 0.676437
vt 0.826137 0.668572
vt 0.786973 0.697027
vt 0.850341 0.676437
vt 0.865301 0.697027
vt 0.865301 0.722477
vt 0.850341 0.743067
vt 0.826137 0.750931
vt 0.801932 0.743067
vt 0.786973 0.722477
vt 0.886629 0.676437
vt 0.910834 0.668572
vt 0.871670 0.697027
vt 0.935039 0.676437
vt 0.949998 0.697027
vt 0.949998 0.722477
vt 0.935039 0.743067
vt 0.910834 0.750931
vt 0.886629 0.743067
vt 0.871670 0.722477
vt 0.900437 0.762650
vt 0.924642 0.754786
vt 0.885478 0.783240
vt 0.948846 0.762650
vt 0.963805 0.783240
vt 0.963805 0.808691
vt 0.948846 0.829280
vt 0.924642 0.837145
vt 0.900437 0.829280
vt 0.885478 0.808691
vt 0.001924 0.331427
vt 0.001924 0.001992
vt 0.166642 0.331427
vt 0.166642 0.001992
vt 0.510295 0.331428
vt 0.510295 0.001992
vt 0.675013 0.331428
vt 0.675013 0.001992
vt 0.202907 0.664718
vt 0.177456 0.664718
vt 0.190181 0.335282
vt 0.061828 0.335282
vt 0.087278 0.335282
vt 0.074553 0.664718
vt 0.112260 0.998008
vt 0.086809 0.998008
vt 0.099534 0.668572
vt 0.203503 0.668572
vt 0.228953 0.668572
vt 0.216228 0.998008
vt 0.345647 0.998008
vt 0.320197 0.998008
vt 0.332922 0.668572
vt 0.436891 0.668572
vt 0.462341 0.668572
vt 0.449616 0.998008
vt 0.579035 0.998008
vt 0.553585 0.998008
vt 0.566310 0.668572
vt 0.670279 0.668572
vt 0.695729 0.668572
vt 0.683004 0.998008
vn 0.000000 0.000000 1.000000
vn 0.000000 0.000000 1.000000
vn 0.000000 0.000000 1.000000
vn 0.000000 0.000000 1.000000
vn 0.000000 1.000000 0.000000
vn 0.000000 1.000000 0.000000
vn 0.000000 1.000000 0.000000
vn 0.000000 1.000000 0.000000
vn 0.000000 0.000000 -1.000000
vn 0.000000 0.000000 -1.000000
vn 0.000000 0.000000 -1.000000
vn 0.000000 0.000000 -1.000000
vn 0.000000 -1.000000 0.000000
vn 0.000000 -1.000000 0.000000
vn 0.000000 -1.000000 0.000000
vn 0.000000 -1.000000 0.000000
vn 1.000000 0.000000 0.000000
vn 1.000000 0.000000 0.000000
vn 1.000000 0.000000 0.000000
vn 1.000000 0.000000 0.000000
vn -1.000000 0.000000 0.000000
vn -1.000000 0.000000 0.000000
vn -1.000000 0.000000 0.000000
vn -1.000000 0.000000 0.000000
vn 0.000000 -1.000000 0.000000
vn 0.000000 -1.000000 0.000000
vn 0.000000 -1.000000 0.000000
vn 0.000000 -1.000000 0.000000
vn 0.000000 -1.000000 0.000000
vn 0.000000 -1.000000 0.000000
vn 0.000000 -1.000000 0.000000
vn 0.000000 -1.000000 0.000000
vn 0.000000 -1.000000 0.000000
vn 0.000000 -1.000000 0.000000
vn 0.583675 0.118051 -0.803360
vn 0.583675 0.118051 -0.803360
vn 0.583675 0.118051 -0.803360
vn -0.000000 0.118051 -0.993008
vn -0.000000 0.118051 -0.993008
vn -0.000000 0.118051 -0.993008
vn -0.583675 0.118051 -0.803360
vn -0.583675 0.118051 -0.803360
vn -0.583675 0.118051 -0.803360
vn -0.944406 0.118051 -0.306856
vn -0.944407 0.118051 -0.306856
vn -0.944406 0.118051 -0.306856
vn -0.944407 0.118051 0.306856
vn -0.944406 0.118051 0.306856
vn -0.944406 0.118051 0.306856
vn -0.583675 0.118051 0.803360
vn -0.583675 0.118051 0.803360
vn -0.583675 0.118051 0.803360
vn 0.000000 0.118051 0.993008
vn 0.000000 0.118051 0.993008
vn 0.000000 0.118051 0.993008
vn 0.583675 0.118051 0.803360
vn 0.583675 0.118051 0.803360
vn 0.583675 0.118051 0.803360
vn 0.944406 0.118051 0.306856
vn 0.944406 0.118051 0.306856
vn 0.944406 0.118051 0.306856
vn 0.944406 0.118051 -0.306856
vn 0.944406 0.118051 -0.306856
vn 0.944406 0.118051 -0.306856
vn 0.000000 -1.000000 0.000000
vn 0.000000 -1.000000 0.000000
vn 0.000000 -1.000000 0.000000
vn 0.000000 -1.000000 0.000000
vn 0.000000 -1.000000 0.000000
vn 0.000000 -1.000000 0.000000
vn 0.000000 -1.000000 0.000000
vn 0.000000 -1.000000 0.000000
vn 0.000000 -1.000000 0.000000
vn 0.000000 -1.000000 0.000000
vn 0.583675 0.118051 -0.803361
vn 0.583675 0.118051 -0.803361
vn 0.583675 0.118051 -0.803361
vn 0.000000 0.118051 -0.993008
vn 0.000000 0.118051 -0.993008
vn 0.000000 0.118051 -0.993008
vn -0.583675 0.118051 -0.803360
vn -0.583675 0.118051 -0.803360
vn -0.583675 0.118051 -0.803360
vn -0.944406 0.118051 -0.306856
vn -0.944407 0.118051 -0.306856
vn -0.944406 0.118051 -0.306856
vn -0.944407 0.118051 0.306856
vn -0.944406 0.118051 0.306856
vn -0.944406 0.118051 0.306856
vn -0.583675 0.118051 0.803360
vn -0.583675 0.118051 0.803360
vn -0.583675 0.118051 0.803360
vn 0.000000 0.118051 0.993008
vn 0.000000 0.118051 0.993008
vn 0.000000 0.118051 0.993008
vn 0.583675 0.118051 0.803360
vn 0.583675 0.118051 0.803360
vn 0.583675 0.118051 0.803360
vn 0.944406 0.118051 0.306856
vn 0.944406 0.118051 0.306856
vn 0.944406 0.118051 0.306856
vn 0.944406 0.118051 -0.306856
vn 0.944406 0.118051 -0.306856
vn 0.944407 0.118051 -0.306856
vn 0.000000 -1.000000 0.000000
vn 0.000000 -1.000000 0.000000
vn 0.000000 -1.000000 0.000000
vn 0.000000 -1.000000 0.000000
vn 0.000000 -1.000000 0.000000
vn 0.000000 -1.000000 0.000000
vn 0.000000 -1.000000 0.000000
vn 0.000000 -1.000000 0.000000
vn 0.000000 -1.000000 0.000000
vn 0.000000 -1.000000 0.000000
vn 0.583675 0.118051 -0.803361
vn 0.583675 0.118051 -0.803361
vn 0.583675 0.118051 -0.803361
vn 0.000000 0.118051 -0.993008
vn 0.000000 0.118051 -0.993008
vn 0.000000 0.118051 -0.993008
vn -0.583675 0.118051 -0.803360
vn -0.583675 0.118051 -0.803360
vn -0.583675 0.118051 -0.803360
vn -0.944406 0.118051 -0.306856
vn -0.944406 0.118051 -0.306856
vn -0.944406 0.118051 -0.306856
vn -0.944406 0.118051 0.306856
vn -0.944406 0.118051 0.306856
vn -0.944406 0.118051 0.306856
vn -0.583675 0.118051 0.803360
vn -0.583675 0.118051 0.803360
vn -0.583675 0.118051 0.803360
vn 0.000000 0.118051 0.993008
vn 0.000000 0.118051 0.993008
vn 0.000000 0.118051 0.993008
vn 0.583675 0.118051 0.803360
vn 0.583675 0.118051 0.803360
vn 0.583675 0.118051 0.803360
vn 0.944406 0.118051 0.306856
vn 0.944406 0.118051 0.306856
vn 0.944406 0.118051 0.306856
vn 0.944407 0.118051 -0.306856
vn 0.944407 0.118051 -0.306856
vn 0.944407 0.118051 -0.306856
vn 0.000000 -1.000000 0.000000
vn 0.000000 -1.000000 0.000000
vn 0.000000 -1.000000 0.000000
vn 0.000000 -1.000000 0.000000
vn 0.000000 -1.000000 0.000000
vn 0.000000 -1.000000 0.000000
vn 0.000000 -1.000000 0.000000
vn 0.000000 -1.000000 0.000000
vn 0.000000 -1.000000 0.000000
vn 0.000000 -1.000000 0.000000
vn 0.583675 0.118051 -0.803360
vn 0.583675 0.118051 -0.803360
vn 0.583675 0.118051 -0.803360
vn -0.000000 0.118051 -0.993008
vn -0.000000 0.118051 -0.993008
vn -0.000000 0.118051 -0.993008
vn -0.583675 0.118051 -0.803360
vn -0.583675 0.118051 -0.803360
vn -0.583675 0.118051 -0.803360
vn -0.944406 0.118051 -0.306856
vn -0.944406 0.118051 -0.306856
vn -0.944406 0.118051 -0.306856
vn -0.944406 0.118051 0.306856
vn -0.944406 0.118051 0.306856
vn -0.944406 0.118051 0.306856
vn -0.583675 0.118051 0.803360
vn -0.583675 0.118051 0.803360
vn -0.583675 0.118051 0.803360
vn 0.000000 0.118051 0.993008
vn 0.000000 0.118051 0.993008
vn 0.000000 0.118051 0.993008
vn 0.583675 0.118051 0.803360
vn 0.583675 0.118051 0.803360
vn 0.583675 0.118051 0.803360
vn 0.944406 0.118051 0.306856
vn 0.944406 0.118051 0.306856
vn 0.944406 0.118051 0.306856
vn 0.944407 0.118051 -0.306856
vn 0.944407 0.118051 -0.306856
vn 0.944407 0.118051 -0.306856
usemtl lambert2SG
f 1/105/1 2/106/2 3/107/3
f 3/107/3 2/106/2 4/108/4
f 3/57/5 4/58/6 5/59/7
f 5/59/7 4/58/6 6/60/8
f 5/109/9 6/110/10 7/111/11
f 7/111/11 6/110/10 8/112/12
f 7/61/13 8/62/14 1/63/15
f 1/63/15 8/62/14 2/64/16
f 2/1/17 8/2/18 4/3/19
f 4/3/19 8/2/18 6/4/20
f 7/5/21 1/6/22 5/7/23
f 5/7/23 1/6/22 3/8/24
f 9/65/25 18/66/26 10/67/27
f 18/66/26 17/68/28 10/67/27
f 17/68/28 16/69/29 10/67/27
f 16/69/29 15/70/30 10/67/27
f 15/70/30 14/71/31 10/67/27
f 14/71/31 13/72/32 10/67/27
f 13/72/32 12/73/33 10/67/27
f 12/73/33 11/74/34 10/67/27
f 9/18/35 10/20/36 19/17/37
f 10/113/38 11/114/39 19/115/40
f 11/13/41 12/9/42 19/11/43
f 12/9/44 13/10/45 19/11/46
f 13/10/47 14/12/48 19/11/49
f 14/12/50 15/14/51 19/11/52
f 15/116/53 16/117/54 19/118/55
f 16/19/56 17/15/57 19/17/58
f 17/15/59 18/16/60 19/17/61
f 18/16/62 9/18/63 19/17/64
f 20/75/65 29/76/66 21/77/67
f 29/76/66 28/78/68 21/77/67
f 28/78/68 27/79/69 21/77/67
f 27/79/69 26/80/70 21/77/67
f 26/80/70 25/81/71 21/77/67
f 25/81/71 24/82/72 21/77/67
f 24/82/72 23/83/73 21/77/67
f 23/83/73 22/84/74 21/77/67
f 20/30/75 21/32/76 30/29/77
f 21/119/78 22/120/79 30/121/80
f 22/25/81 23/21/82 30/23/83
f 23/21/84 24/22/85 30/23/86
f 24/22/87 25/24/88 30/23/89
f 25/24/90 26/26/91 30/23/92
f 26/122/93 27/123/94 30/124/95
f 27/31/96 28/27/97 30/29/98
f 28/27/99 29/28/100 30/29/101
f 29/28/102 20/30/103 30/29/104
f 31/85/105 40/86/106 32/87/107
f 40/86/106 39/88/108 32/87/107
f 39/88/108 38/89/109 32/87/107
f 38/89/109 37/90/110 32/87/107
f 37/90/110 36/91/111 32/87/107
f 36/91/111 35/92/112 32/87/107
f 35/92/112 34/93/113 32/87/107
f 34/93/113 33/94/114 32/87/107
f 31/42/115 32/44/116 41/41/117
f 32/125/118 33/126/119 41/127/120
f 33/37/121 34/33/122 41/35/123
f 34/33/124 35/34/125 41/35/126
f 35/34/127 36/36/128 41/35/129
f 36/36/130 37/38/131 41/35/132
f 37/128/133 38/129/134 41/130/135
f 38/43/136 39/39/137 41/41/138
f 39/39/139 40/40/140 41/41/141
f 40/40/142 31/42/143 41/41/144
f 42/95/145 51/96/146 43/97/147
f 51/96/146 50/98/148 43/97/147
f 50/98/148 49/99/149 43/97/147
f 49/99/149 48/100/150 43/97/147
f 48/100/150 47/101/151 43/97/147
f 47/101/151 46/102/152 43/97/147
f 46/102/152 45/103/153 43/97/147
f 45/103/153 44/104/154 43/97/147
f 42/54/155 43/56/156 52/53/157
f 43/131/158 44/132/159 52/133/160
f 44/49/161 45/45/162 52/47/163
f 45/45/164 46/46/165 52/47/166
f 46/46/167 47/48/168 52/47/169
f 47/48/170 48/50/171 52/47/172
f 48/134/173 49/135/174 52/136/175
f 49/55/176 50/51/177 52/53/178
f 50/51/179 51/52/180 52/53/181
f 51/52/182 42/54/183 52/53/184
