# This file uses centimeters as units for non-parametric coordinates.

mtllib TriangleBlock_Breakable_2.mtl
v -2.500000 -2.500000 2.500000
v 2.500000 -2.500000 2.500000
v -2.500000 2.499999 2.500000
v 2.500000 2.499999 2.500000
v -2.500000 2.499999 -2.500000
v -2.500000 -2.500000 -2.500000
vt 0.338211 0.331530
vt 0.338211 0.001992
vt 0.667748 0.331530
vt 0.667748 0.001992
vt 0.596002 0.664769
vt 0.596002 0.335231
vt 0.925539 0.664769
vt 0.001847 0.668470
vt 0.331385 0.668470
vt 0.001847 0.998008
vt 0.001847 0.331530
vt 0.001847 0.001992
vt 0.331385 0.331530
vt 0.331385 0.001992
vt 0.590312 0.664769
vt 0.260774 0.664769
vt 0.590312 0.335231
vt 0.260774 0.335231
vn 0.000000 0.000000 1.000000
vn 0.000000 0.000000 1.000000
vn 0.000000 0.000000 1.000000
vn 0.000000 0.000000 1.000000
vn 0.000000 0.000000 1.000000
vn 0.000000 0.000000 1.000000
vn -1.000000 0.000000 0.000000
vn -1.000000 0.000000 0.000000
vn -1.000000 0.000000 0.000000
vn -1.000000 0.000000 0.000000
vn -1.000000 0.000000 0.000000
vn -1.000000 0.000000 0.000000
vn 0.000000 -1.000000 0.000000
vn 0.000000 -1.000000 0.000000
vn 0.000000 -1.000000 0.000000
vn 0.707107 0.000000 -0.707107
vn 0.707107 0.000000 -0.707107
vn 0.707107 0.000000 -0.707107
vn 0.707107 0.000000 -0.707107
vn 0.707107 0.000000 -0.707107
vn 0.707107 0.000000 -0.707107
vn 0.000000 1.000000 0.000000
vn 0.000000 1.000000 0.000000
vn 0.000000 1.000000 0.000000
usemtl lambert2SG
f 1/11/1 2/12/2 3/13/3
f 3/13/4 2/12/5 4/14/6
f 6/1/7 1/2/8 5/3/9
f 5/3/10 1/2/11 3/4/12
f 1/5/13 6/6/14 2/7/15
f 4/15/16 2/16/17 5/17/18
f 5/17/19 2/16/20 6/18/21
f 3/8/22 4/9/23 5/10/24
